# xmcd
#
# Track frame offsets:
#	150
#	15867
#	34895
#	56865
#	75745
#	91965
#	110010
#	129950
#	152410
#	185135
#	204422
#
# Disc length: 2976 seconds
#
# Revision: 1
# Processed by: cddbd v1.5PL3 Copyright (c) Steve Scherf et al.
# Submitted via: CDex 1.50Beta5
#
DISCID=870b9e0b
DTITLE=太田裕美 - ELEGANCE
DYEAR=1991
DGENRE=Pop
TTITLE0=クリスタル・ムーン
TTITLE1=ピッツァ・ハウス22時
TTITLE2=リボン
TTITLE3=スワン
TTITLE4=Summer End Samba
TTITLE5=エアポート’78
TTITLE6=ドール
TTITLE7=煉瓦荘
TTITLE8=天国と地獄
TTITLE9=元気?
TTITLE10=冬の蜂
EXTD=
EXTT0=
EXTT1=
EXTT2=
EXTT3=
EXTT4=
EXTT5=
EXTT6=
EXTT7=
EXTT8=
EXTT9=
EXTT10=
PLAYORDER=
